<?xml version="1.0"?>
<svg xmlns="http://www.w3.org/2000/svg" viewBox="0 0 64 64" width="512" height="512">
    <g id="sunset">
        <path
            d="M15.33,40.4a9.457,9.457,0,0,1,3.67.66,7.441,7.441,0,0,0,2.99.54,7.441,7.441,0,0,0,2.99-.54,9.475,9.475,0,0,1,3.68-.66,9.457,9.457,0,0,1,3.67.66,7.441,7.441,0,0,0,2.99.54,7.441,7.441,0,0,0,2.99-.54,10.562,10.562,0,0,1,7.35,0,7.441,7.441,0,0,0,2.99.54,7.783,7.783,0,0,0,.88-.04A21,21,0,1,0,13.82,40.5,10.786,10.786,0,0,1,15.33,40.4Z" />
        <path
            d="M53,46.42a5.009,5.009,0,0,1-2-.361,7.7,7.7,0,0,0-5.348,0,5.7,5.7,0,0,1-3.993,0,7.695,7.695,0,0,0-5.345,0,5.682,5.682,0,0,1-3.986,0,7.689,7.689,0,0,0-5.343,0,4.967,4.967,0,0,1-1.993.361A4.973,4.973,0,0,1,23,46.059a6.889,6.889,0,0,0-2.672-.479,6.884,6.884,0,0,0-2.671.479,4.973,4.973,0,0,1-1.994.361,4.962,4.962,0,0,1-1.992-.361A6.879,6.879,0,0,0,11,45.58a1,1,0,0,0,0,2,4.967,4.967,0,0,1,1.993.361,6.878,6.878,0,0,0,2.67.479,6.889,6.889,0,0,0,2.672-.479,4.967,4.967,0,0,1,1.993-.361,4.973,4.973,0,0,1,1.994.361,6.889,6.889,0,0,0,2.672.479,6.884,6.884,0,0,0,2.671-.479,5.685,5.685,0,0,1,3.987,0,7.687,7.687,0,0,0,5.342,0,5.69,5.69,0,0,1,3.989,0,7.7,7.7,0,0,0,5.347,0,5.71,5.71,0,0,1,4,0A6.9,6.9,0,0,0,53,48.42a1,1,0,0,0,0-2Z" />
        <path
            d="M44,50.24a2.442,2.442,0,0,1-1-.181,4.841,4.841,0,0,0-3.35,0,2.831,2.831,0,0,1-1.992,0,4.83,4.83,0,0,0-3.346,0,2.823,2.823,0,0,1-1.989,0,4.822,4.822,0,0,0-3.343,0,2.813,2.813,0,0,1-1.983,0,4.808,4.808,0,0,0-3.341,0,2.82,2.82,0,0,1-1.988,0A4.364,4.364,0,0,0,20,49.76a1,1,0,1,0,0,2,2.43,2.43,0,0,1,.993.18,4.809,4.809,0,0,0,3.344,0,2.821,2.821,0,0,1,1.983,0,4.808,4.808,0,0,0,3.341,0,2.817,2.817,0,0,1,1.987,0,4.827,4.827,0,0,0,3.345,0,2.825,2.825,0,0,1,1.99,0,4.836,4.836,0,0,0,3.348,0,2.836,2.836,0,0,1,1.994,0,4.385,4.385,0,0,0,1.675.3,1,1,0,0,0,0-2Z" />
        <path
            d="M41,54.18a1.582,1.582,0,0,1-.663-.121,3.879,3.879,0,0,0-2.681,0,1.609,1.609,0,0,1-.665.121,1.572,1.572,0,0,1-.661-.121,3.873,3.873,0,0,0-2.679,0,1.866,1.866,0,0,1-1.322,0,3.868,3.868,0,0,0-2.677,0,1.86,1.86,0,0,1-1.317,0,3.857,3.857,0,0,0-2.676,0,1.863,1.863,0,0,1-1.321,0A3.523,3.523,0,0,0,23,53.82a1,1,0,1,0,0,2,1.571,1.571,0,0,1,.66.121,3.86,3.86,0,0,0,2.677,0,1.87,1.87,0,0,1,1.318,0,3.854,3.854,0,0,0,2.675,0,1.863,1.863,0,0,1,1.321,0,3.87,3.87,0,0,0,2.678,0,1.869,1.869,0,0,1,1.323,0,3.876,3.876,0,0,0,2.68,0,1.88,1.88,0,0,1,1.327,0A3.547,3.547,0,0,0,41,56.18a1,1,0,0,0,0-2Z" />
        <path
            d="M38,58.12a.762.762,0,0,1-.331-.061,2.919,2.919,0,0,0-2.013,0,.762.762,0,0,1-.331.061A.729.729,0,0,1,35,58.059a2.916,2.916,0,0,0-2.012,0,.91.91,0,0,1-.655,0,2.914,2.914,0,0,0-2.011,0,.911.911,0,0,1-.653,0,2.9,2.9,0,0,0-2.01,0,.909.909,0,0,1-.652,0,2.655,2.655,0,0,0-1-.18,1,1,0,1,0,0,2,.73.73,0,0,1,.324.06,2.655,2.655,0,0,0,1,.18,2.694,2.694,0,0,0,1.006-.179.909.909,0,0,1,.652,0,2.906,2.906,0,0,0,2.011,0,.91.91,0,0,1,.655,0,2.914,2.914,0,0,0,2.011,0,.727.727,0,0,1,.327-.061.753.753,0,0,1,.329.061,2.919,2.919,0,0,0,2.013,0,.926.926,0,0,1,.661,0A2.7,2.7,0,0,0,38,60.12a1,1,0,0,0,0-2Z" />
        <path
            d="M51.707,5.707l.841-.841a1,1,0,0,1,1.262-.124l1.635,1.09a1,1,0,0,0,1.11,0l1.635-1.09a1,1,0,0,1,1.262.124l.841.841a1,1,0,0,0,1.414-1.414l-.841-.841a3.007,3.007,0,0,0-3.785-.374L56,3.8l-1.081-.72a3.007,3.007,0,0,0-3.785.374l-.841.841a1,1,0,0,0,1.414,1.414Z" />
        <path
            d="M48.707,10.421l.5-.5a.2.2,0,0,1,.253-.025l.981.654a1,1,0,0,0,1.11,0l.981-.655a.2.2,0,0,1,.253.025l.5.5a1,1,0,1,0,1.414-1.413l-.5-.5a2.2,2.2,0,0,0-2.776-.274L51,8.513l-.427-.284A2.2,2.2,0,0,0,47.8,8.5l-.5.5a1,1,0,1,0,1.414,1.413Z" />
        <path
            d="M61.2,13.5a2.2,2.2,0,0,0-2.776-.274L58,13.513l-.427-.284A2.2,2.2,0,0,0,54.8,13.5l-.5.5a1,1,0,1,0,1.414,1.413l.5-.5a.2.2,0,0,1,.253-.025l.981.654a1,1,0,0,0,1.11,0l.981-.655a.2.2,0,0,1,.253.025l.5.5a1,1,0,1,0,1.414-1.413Z" />
    </g>
</svg>
