<svg id="Capa_1" enable-background="new 0 0 512 512" height="512" viewBox="0 0 512 512" width="512" xmlns="http://www.w3.org/2000/svg"><g><path d="m173.5 143.104c7.178-4.146 9.639-13.315 5.493-20.493l-30-51.958c-4.16-7.178-13.374-9.624-20.493-5.493-7.178 4.146-9.639 13.315-5.493 20.493l30 51.958c4.149 7.184 13.341 9.624 20.493 5.493z"/><path d="m419.389 208.993 51.958-30c7.178-4.146 9.639-13.315 5.493-20.493-4.146-7.207-13.359-9.639-20.493-5.493l-51.958 30c-7.178 4.146-9.639 13.315-5.493 20.493 4.149 7.183 13.341 9.624 20.493 5.493z"/><path d="m358.993 137.611 30-51.958c4.146-7.178 1.685-16.348-5.493-20.493-7.178-4.131-16.348-1.685-20.493 5.493l-30 51.958c-4.146 7.178-1.685 16.348 5.493 20.493 7.139 4.124 16.337 1.703 20.493-5.493z"/><path d="m40.653 178.993 51.958 30c7.139 4.124 16.337 1.703 20.493-5.493 4.146-7.178 1.685-16.348-5.493-20.493l-51.958-30c-7.163-4.146-16.348-1.714-20.493 5.493-4.145 7.178-1.684 16.348 5.493 20.493z"/><path d="m241 46v60c0 8.291 6.709 15 15 15s15-6.709 15-15v-60c0-8.291-6.709-15-15-15s-15 6.709-15 15z"/><path d="m15 301h61c8.291 0 15-6.709 15-15s-6.709-15-15-15h-61c-8.291 0-15 6.709-15 15s6.709 15 15 15z"/><path d="m497 271h-61c-8.291 0-15 6.709-15 15s6.709 15 15 15h61c8.291 0 15-6.709 15-15s-6.709-15-15-15z"/><path d="m253.056 250.023c11.279 8.555 17.944 21.973 17.944 35.977 0 26.235 7.368 35.537 94.966 45.278 5.103.568 10.538 1.194 16.102 1.866 5.513-14.727 8.932-30.491 8.932-47.144 0-74.559-60.441-135-135-135-72.253 0-130.741 56.906-134.321 128.269 43.678-21.984 82.335-33.792 91.957-36.541 13.58-3.938 28.287-1.065 39.42 7.295z"/><path d="m362.655 361.088c-72.109-8.011-117.05-16.289-120.905-68.157l-6.757 5.067c-.52.41-58.037 47.001-53.696 183.003h315.703c8.291 0 15-6.709 15-15 0-88.434-83.251-97.56-149.345-104.913z"/><path d="m217.006 274.003 2.162-1.622c-24.517 7.348-219.168 69.342-219.168 193.619 0 8.291 6.709 15 15 15h136.253c-4.684-152.221 62.68-204.706 65.753-206.997z"/></g></svg>